<mxfile host="app.diagrams.net" agent="Mozilla/5.0 (Windows NT 10.0; Win64; x64) AppleWebKit/537.36 (KHTML, like Gecko) Chrome/140.0.0.0 Safari/537.36 Edg/140.0.0.0" version="28.2.1">
  <diagram name="Страница — 1" id="vrJpJuXnvYbc0XaoZZVB">
    <mxGraphModel dx="1198" dy="690" grid="1" gridSize="10" guides="1" tooltips="1" connect="1" arrows="1" fold="1" page="1" pageScale="1" pageWidth="827" pageHeight="1169" math="0" shadow="0">
      <root>
        <mxCell id="0" />
        <mxCell id="1" parent="0" />
        <mxCell id="zSwlv2F4HAKd1OcXFcvh-34" value="" style="rounded=0;whiteSpace=wrap;html=1;fillColor=#e1d5e7;strokeColor=#9673a6;" vertex="1" parent="1">
          <mxGeometry x="750" y="850" width="280" height="230" as="geometry" />
        </mxCell>
        <mxCell id="zSwlv2F4HAKd1OcXFcvh-71" style="edgeStyle=orthogonalEdgeStyle;rounded=0;orthogonalLoop=1;jettySize=auto;html=1;exitX=0.75;exitY=0;exitDx=0;exitDy=0;entryX=1;entryY=0.75;entryDx=0;entryDy=0;fontFamily=Helvetica;fontSize=12;fontColor=default;" edge="1" parent="1" source="zSwlv2F4HAKd1OcXFcvh-11" target="zSwlv2F4HAKd1OcXFcvh-40">
          <mxGeometry relative="1" as="geometry" />
        </mxCell>
        <mxCell id="zSwlv2F4HAKd1OcXFcvh-73" value="roomservice" style="edgeLabel;html=1;align=center;verticalAlign=middle;resizable=0;points=[];pointerEvents=0;fontFamily=Helvetica;fontSize=12;fontColor=default;fillColor=none;gradientColor=none;" vertex="1" connectable="0" parent="zSwlv2F4HAKd1OcXFcvh-71">
          <mxGeometry x="0.4127" y="-4" relative="1" as="geometry">
            <mxPoint x="-114" y="26" as="offset" />
          </mxGeometry>
        </mxCell>
        <mxCell id="zSwlv2F4HAKd1OcXFcvh-11" value="&lt;b&gt;&lt;font style=&quot;font-size: 16px;&quot;&gt;room-service&lt;/font&gt;&lt;/b&gt;" style="rounded=1;whiteSpace=wrap;html=1;fillColor=#FCE7F3;strokeColor=#BE185D;fontSize=12;" vertex="1" parent="1">
          <mxGeometry x="680" y="470" width="200" height="60" as="geometry" />
        </mxCell>
        <mxCell id="zSwlv2F4HAKd1OcXFcvh-69" style="edgeStyle=orthogonalEdgeStyle;rounded=0;orthogonalLoop=1;jettySize=auto;html=1;exitX=1;exitY=0.25;exitDx=0;exitDy=0;fontFamily=Helvetica;fontSize=12;fontColor=default;" edge="1" parent="1" source="zSwlv2F4HAKd1OcXFcvh-12" target="zSwlv2F4HAKd1OcXFcvh-15">
          <mxGeometry relative="1" as="geometry" />
        </mxCell>
        <mxCell id="zSwlv2F4HAKd1OcXFcvh-12" value="&lt;b&gt;&lt;font style=&quot;font-size: 16px;&quot;&gt;file-service&lt;/font&gt;&lt;/b&gt;" style="rounded=1;whiteSpace=wrap;html=1;fillColor=#F0F9FF;strokeColor=#0369A1;fontSize=12;" vertex="1" parent="1">
          <mxGeometry x="920" y="470" width="200" height="60" as="geometry" />
        </mxCell>
        <mxCell id="zSwlv2F4HAKd1OcXFcvh-56" style="edgeStyle=orthogonalEdgeStyle;rounded=0;orthogonalLoop=1;jettySize=auto;html=1;fontFamily=Helvetica;fontSize=12;fontColor=default;strokeWidth=3;fillColor=#d5e8d4;strokeColor=#82b366;" edge="1" parent="1" source="zSwlv2F4HAKd1OcXFcvh-13" target="zSwlv2F4HAKd1OcXFcvh-35">
          <mxGeometry relative="1" as="geometry" />
        </mxCell>
        <mxCell id="zSwlv2F4HAKd1OcXFcvh-57" value="Every topic" style="edgeLabel;html=1;align=center;verticalAlign=middle;resizable=0;points=[];pointerEvents=0;fontFamily=Helvetica;fontSize=12;fontColor=default;fillColor=none;gradientColor=none;" vertex="1" connectable="0" parent="zSwlv2F4HAKd1OcXFcvh-56">
          <mxGeometry x="-0.1077" y="4" relative="1" as="geometry">
            <mxPoint as="offset" />
          </mxGeometry>
        </mxCell>
        <mxCell id="zSwlv2F4HAKd1OcXFcvh-13" value="&lt;font style=&quot;font-size: 16px;&quot;&gt;&lt;b style=&quot;&quot;&gt;Apache Kafka&lt;br&gt;(Event Bus)&lt;/b&gt;&lt;/font&gt;" style="rounded=1;whiteSpace=wrap;html=1;fillColor=#FEF2F2;strokeColor=#DC2626;fontSize=12;" vertex="1" parent="1">
          <mxGeometry x="670" y="650" width="440" height="60" as="geometry" />
        </mxCell>
        <mxCell id="zSwlv2F4HAKd1OcXFcvh-15" value="&lt;b&gt;&lt;font style=&quot;font-size: 16px;&quot;&gt;MinIO&lt;/font&gt;&lt;/b&gt;&lt;div&gt;&lt;b&gt;&lt;font style=&quot;font-size: 16px;&quot;&gt;(file storage)&lt;/font&gt;&lt;/b&gt;&lt;/div&gt;" style="shape=folder;whiteSpace=wrap;html=1;fillColor=#FFF7ED;strokeColor=#F59E0B;fontSize=12;tabWidth=90;tabHeight=30;" vertex="1" parent="1">
          <mxGeometry x="1200" y="430" width="180" height="110" as="geometry" />
        </mxCell>
        <mxCell id="zSwlv2F4HAKd1OcXFcvh-37" style="edgeStyle=orthogonalEdgeStyle;rounded=0;orthogonalLoop=1;jettySize=auto;html=1;" edge="1" parent="1" source="zSwlv2F4HAKd1OcXFcvh-16" target="zSwlv2F4HAKd1OcXFcvh-17">
          <mxGeometry relative="1" as="geometry" />
        </mxCell>
        <mxCell id="zSwlv2F4HAKd1OcXFcvh-16" value="Elasticsearch" style="rounded=1;whiteSpace=wrap;html=1;fillColor=#EFF6FF;strokeColor=#1E40AF;fontSize=16;fontStyle=1" vertex="1" parent="1">
          <mxGeometry x="760" y="935" width="260" height="60" as="geometry" />
        </mxCell>
        <mxCell id="zSwlv2F4HAKd1OcXFcvh-17" value="Kibana" style="rounded=1;whiteSpace=wrap;html=1;fillColor=#FEF3C7;strokeColor=#B45309;fontSize=16;fontStyle=1" vertex="1" parent="1">
          <mxGeometry x="760" y="1010" width="260" height="60" as="geometry" />
        </mxCell>
        <mxCell id="zSwlv2F4HAKd1OcXFcvh-36" style="edgeStyle=orthogonalEdgeStyle;rounded=0;orthogonalLoop=1;jettySize=auto;html=1;" edge="1" parent="1" source="zSwlv2F4HAKd1OcXFcvh-35" target="zSwlv2F4HAKd1OcXFcvh-16">
          <mxGeometry relative="1" as="geometry" />
        </mxCell>
        <mxCell id="zSwlv2F4HAKd1OcXFcvh-35" value="Logstash" style="rounded=1;whiteSpace=wrap;html=1;fillColor=#d5e8d4;strokeColor=#82b366;fontSize=16;fontStyle=1" vertex="1" parent="1">
          <mxGeometry x="760" y="860" width="260" height="60" as="geometry" />
        </mxCell>
        <mxCell id="zSwlv2F4HAKd1OcXFcvh-65" style="edgeStyle=orthogonalEdgeStyle;rounded=0;orthogonalLoop=1;jettySize=auto;html=1;exitX=1;exitY=0;exitDx=0;exitDy=0;entryX=0.5;entryY=0;entryDx=0;entryDy=0;fontFamily=Helvetica;fontSize=12;fontColor=default;strokeWidth=2;fillColor=#e1d5e7;strokeColor=#9673a6;dashed=1;" edge="1" parent="1" source="zSwlv2F4HAKd1OcXFcvh-43" target="zSwlv2F4HAKd1OcXFcvh-11">
          <mxGeometry relative="1" as="geometry">
            <Array as="points">
              <mxPoint x="780" y="420" />
            </Array>
          </mxGeometry>
        </mxCell>
        <mxCell id="zSwlv2F4HAKd1OcXFcvh-67" style="edgeStyle=orthogonalEdgeStyle;rounded=0;orthogonalLoop=1;jettySize=auto;html=1;exitX=1;exitY=0;exitDx=0;exitDy=0;entryX=0.5;entryY=0;entryDx=0;entryDy=0;fontFamily=Helvetica;fontSize=12;fontColor=default;strokeWidth=2;fillColor=#e1d5e7;strokeColor=#9673a6;dashed=1;" edge="1" parent="1" source="zSwlv2F4HAKd1OcXFcvh-43" target="zSwlv2F4HAKd1OcXFcvh-12">
          <mxGeometry relative="1" as="geometry">
            <Array as="points">
              <mxPoint x="1020" y="420" />
            </Array>
          </mxGeometry>
        </mxCell>
        <mxCell id="zSwlv2F4HAKd1OcXFcvh-43" value="&lt;font style=&quot;font-size: 16px;&quot;&gt;&lt;b&gt;Event schema&lt;/b&gt;&amp;nbsp;&lt;/font&gt;&lt;div&gt;&lt;br&gt;&lt;/div&gt;&lt;div&gt;&lt;br&gt;&lt;/div&gt;&lt;div&gt;&lt;br&gt;&lt;/div&gt;&lt;div&gt;&lt;br&gt;&lt;/div&gt;&lt;div&gt;&lt;br&gt;&lt;/div&gt;&lt;div&gt;&lt;br&gt;&lt;/div&gt;&lt;div&gt;&lt;br&gt;&lt;/div&gt;&lt;div&gt;&lt;br&gt;&lt;/div&gt;&lt;div&gt;&lt;br&gt;&lt;/div&gt;&lt;div&gt;&lt;br&gt;&lt;/div&gt;&lt;div&gt;&lt;br&gt;&lt;/div&gt;&lt;div&gt;&lt;br&gt;&lt;/div&gt;" style="whiteSpace=wrap;html=1;aspect=fixed;fillColor=#e1d5e7;strokeColor=#9673a6;" vertex="1" parent="1">
          <mxGeometry x="340" y="420" width="240" height="240" as="geometry" />
        </mxCell>
        <mxCell id="zSwlv2F4HAKd1OcXFcvh-45" value="" style="rounded=0;whiteSpace=wrap;html=1;fillColor=#dae8fc;strokeColor=#6c8ebf;" vertex="1" parent="1">
          <mxGeometry x="355" y="480" width="215" height="160" as="geometry" />
        </mxCell>
        <mxCell id="zSwlv2F4HAKd1OcXFcvh-46" value="&lt;b&gt;&lt;font style=&quot;font-size: 16px;&quot;&gt;BaseEvent&lt;/font&gt;&lt;/b&gt;" style="text;html=1;align=center;verticalAlign=middle;whiteSpace=wrap;rounded=0;" vertex="1" parent="1">
          <mxGeometry x="374" y="490" width="60" height="30" as="geometry" />
        </mxCell>
        <mxCell id="zSwlv2F4HAKd1OcXFcvh-48" value="Event metadata" style="rounded=0;whiteSpace=wrap;html=1;fillColor=#e1d5e7;strokeColor=#9673a6;" vertex="1" parent="1">
          <mxGeometry x="370" y="520" width="180" height="40" as="geometry" />
        </mxCell>
        <mxCell id="zSwlv2F4HAKd1OcXFcvh-49" value="Payload" style="rounded=0;whiteSpace=wrap;html=1;fillColor=#d5e8d4;strokeColor=#82b366;" vertex="1" parent="1">
          <mxGeometry x="370" y="560" width="180" height="40" as="geometry" />
        </mxCell>
        <mxCell id="zSwlv2F4HAKd1OcXFcvh-40" value="&lt;font style=&quot;font-size: 16px;&quot;&gt;&lt;b&gt;Databases*&amp;nbsp;&lt;/b&gt;&lt;/font&gt;&lt;div&gt;&lt;font style=&quot;font-size: 16px;&quot;&gt;&lt;b&gt;&lt;br&gt;&lt;/b&gt;&lt;/font&gt;&lt;/div&gt;&lt;div&gt;&lt;font style=&quot;font-size: 16px;&quot;&gt;&lt;b&gt;&lt;br&gt;&lt;/b&gt;&lt;/font&gt;&lt;/div&gt;&lt;div&gt;&lt;font style=&quot;font-size: 16px;&quot;&gt;&lt;b&gt;&lt;br&gt;&lt;/b&gt;&lt;/font&gt;&lt;/div&gt;&lt;div&gt;&lt;font style=&quot;font-size: 16px;&quot;&gt;&lt;b&gt;&lt;br&gt;&lt;/b&gt;&lt;/font&gt;&lt;/div&gt;&lt;div&gt;&lt;font style=&quot;font-size: 16px;&quot;&gt;&lt;b&gt;&lt;br&gt;&lt;/b&gt;&lt;/font&gt;&lt;/div&gt;&lt;div&gt;&lt;font style=&quot;font-size: 16px;&quot;&gt;&lt;b&gt;&lt;br&gt;&lt;/b&gt;&lt;/font&gt;&lt;/div&gt;&lt;div&gt;&lt;font style=&quot;font-size: 16px;&quot;&gt;&lt;b&gt;&lt;br&gt;&lt;/b&gt;&lt;/font&gt;&lt;/div&gt;&lt;div&gt;&lt;font style=&quot;font-size: 16px;&quot;&gt;&lt;b&gt;&lt;br&gt;&lt;/b&gt;&lt;/font&gt;&lt;/div&gt;&lt;div&gt;&lt;font style=&quot;font-size: 16px;&quot;&gt;&lt;b&gt;&lt;br&gt;&lt;/b&gt;&lt;/font&gt;&lt;/div&gt;&lt;div&gt;&lt;font style=&quot;font-size: 16px;&quot;&gt;&lt;b&gt;&lt;br&gt;&lt;/b&gt;&lt;/font&gt;&lt;/div&gt;&lt;div&gt;&lt;font style=&quot;font-size: 16px;&quot;&gt;&lt;b&gt;&lt;br&gt;&lt;/b&gt;&lt;/font&gt;&lt;/div&gt;&lt;div&gt;&lt;br&gt;&lt;/div&gt;" style="whiteSpace=wrap;html=1;aspect=fixed;fillColor=#b0e3e6;strokeColor=#0e8088;" vertex="1" parent="1">
          <mxGeometry x="750" y="50" width="270" height="270" as="geometry" />
        </mxCell>
        <mxCell id="zSwlv2F4HAKd1OcXFcvh-14" value="&lt;div&gt;&lt;b&gt;&lt;br&gt;&lt;/b&gt;&lt;/div&gt;&lt;div&gt;&lt;b&gt;&lt;br&gt;&lt;/b&gt;&lt;/div&gt;&lt;b&gt;Postgres&lt;/b&gt;&lt;div&gt;&lt;br&gt;&lt;/div&gt;" style="shape=cylinder;whiteSpace=wrap;html=1;fillColor=#ECFEFF;strokeColor=#06B6D4;fontSize=12;" vertex="1" parent="1">
          <mxGeometry x="771" y="147.5" width="180" height="60" as="geometry" />
        </mxCell>
        <mxCell id="zSwlv2F4HAKd1OcXFcvh-41" value="*current configuration provide one db for all services, but you could you use more" style="text;html=1;align=left;verticalAlign=middle;whiteSpace=wrap;rounded=0;fontStyle=2;fontSize=13;" vertex="1" parent="1">
          <mxGeometry x="754" y="280" width="236" height="30" as="geometry" />
        </mxCell>
        <mxCell id="zSwlv2F4HAKd1OcXFcvh-54" style="edgeStyle=orthogonalEdgeStyle;rounded=0;orthogonalLoop=1;jettySize=auto;html=1;fontFamily=Helvetica;fontSize=12;fontColor=default;" edge="1" parent="1" source="zSwlv2F4HAKd1OcXFcvh-52" target="zSwlv2F4HAKd1OcXFcvh-14">
          <mxGeometry relative="1" as="geometry" />
        </mxCell>
        <mxCell id="zSwlv2F4HAKd1OcXFcvh-52" value="Different schemas" style="rounded=0;whiteSpace=wrap;html=1;rotation=90;fillColor=#f5f5f5;fontColor=#333333;strokeColor=#666666;" vertex="1" parent="1">
          <mxGeometry x="901" y="160" width="200" height="35" as="geometry" />
        </mxCell>
        <mxCell id="zSwlv2F4HAKd1OcXFcvh-59" style="edgeStyle=orthogonalEdgeStyle;rounded=0;orthogonalLoop=1;jettySize=auto;html=1;exitX=0.25;exitY=1;exitDx=0;exitDy=0;entryX=0.135;entryY=0.064;entryDx=0;entryDy=0;entryPerimeter=0;fontFamily=Helvetica;fontSize=12;fontColor=default;strokeWidth=3;strokeColor=light-dark(#d05c8c, #ededed);" edge="1" parent="1" source="zSwlv2F4HAKd1OcXFcvh-11" target="zSwlv2F4HAKd1OcXFcvh-13">
          <mxGeometry relative="1" as="geometry" />
        </mxCell>
        <mxCell id="zSwlv2F4HAKd1OcXFcvh-60" value="room.events" style="edgeLabel;html=1;align=center;verticalAlign=middle;resizable=0;points=[];pointerEvents=0;fontFamily=Helvetica;fontSize=12;fontColor=default;fillColor=none;gradientColor=none;" vertex="1" connectable="0" parent="zSwlv2F4HAKd1OcXFcvh-59">
          <mxGeometry x="-0.4963" relative="1" as="geometry">
            <mxPoint as="offset" />
          </mxGeometry>
        </mxCell>
        <mxCell id="zSwlv2F4HAKd1OcXFcvh-61" style="edgeStyle=orthogonalEdgeStyle;rounded=0;orthogonalLoop=1;jettySize=auto;html=1;exitX=0.25;exitY=1;exitDx=0;exitDy=0;entryX=0.682;entryY=0.056;entryDx=0;entryDy=0;entryPerimeter=0;fontFamily=Helvetica;fontSize=12;fontColor=default;endArrow=none;endFill=0;startArrow=classic;startFill=1;strokeColor=light-dark(#d05c8c, #ff5dff);strokeWidth=3;" edge="1" parent="1" source="zSwlv2F4HAKd1OcXFcvh-12" target="zSwlv2F4HAKd1OcXFcvh-13">
          <mxGeometry relative="1" as="geometry" />
        </mxCell>
        <mxCell id="zSwlv2F4HAKd1OcXFcvh-62" value="room.events" style="edgeLabel;html=1;align=center;verticalAlign=middle;resizable=0;points=[];pointerEvents=0;fontFamily=Helvetica;fontSize=12;fontColor=default;fillColor=none;gradientColor=none;" vertex="1" connectable="0" parent="zSwlv2F4HAKd1OcXFcvh-61">
          <mxGeometry x="-0.353" y="1" relative="1" as="geometry">
            <mxPoint y="-1" as="offset" />
          </mxGeometry>
        </mxCell>
        <mxCell id="zSwlv2F4HAKd1OcXFcvh-63" style="edgeStyle=orthogonalEdgeStyle;rounded=0;orthogonalLoop=1;jettySize=auto;html=1;exitX=0.75;exitY=1;exitDx=0;exitDy=0;entryX=0.909;entryY=-0.001;entryDx=0;entryDy=0;entryPerimeter=0;fontFamily=Helvetica;fontSize=12;fontColor=default;strokeWidth=3;strokeColor=light-dark(#436e84, #ededed);" edge="1" parent="1" source="zSwlv2F4HAKd1OcXFcvh-12" target="zSwlv2F4HAKd1OcXFcvh-13">
          <mxGeometry relative="1" as="geometry" />
        </mxCell>
        <mxCell id="zSwlv2F4HAKd1OcXFcvh-64" value="file.events" style="edgeLabel;html=1;align=center;verticalAlign=middle;resizable=0;points=[];pointerEvents=0;fontFamily=Helvetica;fontSize=12;fontColor=default;fillColor=none;gradientColor=none;" vertex="1" connectable="0" parent="zSwlv2F4HAKd1OcXFcvh-63">
          <mxGeometry x="-0.1961" y="-2" relative="1" as="geometry">
            <mxPoint as="offset" />
          </mxGeometry>
        </mxCell>
        <mxCell id="zSwlv2F4HAKd1OcXFcvh-70" style="edgeStyle=orthogonalEdgeStyle;rounded=0;orthogonalLoop=1;jettySize=auto;html=1;exitX=0;exitY=0;exitDx=0;exitDy=90;exitPerimeter=0;fontFamily=Helvetica;fontSize=12;fontColor=default;" edge="1" parent="1" source="zSwlv2F4HAKd1OcXFcvh-15">
          <mxGeometry relative="1" as="geometry">
            <mxPoint x="1120" y="520" as="targetPoint" />
          </mxGeometry>
        </mxCell>
        <mxCell id="zSwlv2F4HAKd1OcXFcvh-72" style="edgeStyle=orthogonalEdgeStyle;rounded=0;orthogonalLoop=1;jettySize=auto;html=1;exitX=0.75;exitY=0;exitDx=0;exitDy=0;entryX=0.719;entryY=-0.001;entryDx=0;entryDy=0;entryPerimeter=0;fontFamily=Helvetica;fontSize=12;fontColor=default;" edge="1" parent="1" source="zSwlv2F4HAKd1OcXFcvh-12" target="zSwlv2F4HAKd1OcXFcvh-52">
          <mxGeometry relative="1" as="geometry" />
        </mxCell>
        <mxCell id="zSwlv2F4HAKd1OcXFcvh-74" value="fileservice" style="edgeLabel;html=1;align=center;verticalAlign=middle;resizable=0;points=[];pointerEvents=0;fontFamily=Helvetica;fontSize=12;fontColor=default;fillColor=none;gradientColor=none;" vertex="1" connectable="0" parent="zSwlv2F4HAKd1OcXFcvh-72">
          <mxGeometry x="-0.1946" y="-2" relative="1" as="geometry">
            <mxPoint as="offset" />
          </mxGeometry>
        </mxCell>
      </root>
    </mxGraphModel>
  </diagram>
</mxfile>
